<?xml version="1.0" standalone="no"?>
<!DOCTYPE svg PUBLIC "-//W3C//DTD SVG 20010904//EN"
 "http://www.w3.org/TR/2001/REC-SVG-20010904/DTD/svg10.dtd">
<svg version="1.0" xmlns="http://www.w3.org/2000/svg"
 width="500.000000pt" height="500.000000pt" viewBox="0 0 500.000000 500.000000"
 preserveAspectRatio="xMidYMid meet">

<g transform="translate(0.000000,500.000000) scale(0.100000,-0.100000)"
fill="#000000" stroke="none">
<path d="M0 2500 l0 -2500 2500 0 2500 0 0 2500 0 2500 -2500 0 -2500 0 0
-2500z m2450 1100 l46 -185 110 -7 c557 -38 1020 -247 1384 -624 96 -99 220
-257 220 -279 0 -45 -256 -331 -400 -448 -225 -182 -563 -347 -817 -398 -37
-8 -63 -18 -63 -26 0 -6 20 -94 45 -194 25 -100 45 -187 45 -194 0 -13 -171
-56 -181 -46 -4 3 -46 168 -94 366 -48 198 -90 363 -94 367 -5 5 -140 -18
-148 -26 -2 -2 12 -69 32 -149 19 -81 35 -149 35 -152 0 -3 -42 -5 -94 -5
l-94 0 -32 133 c-50 214 -47 205 -79 212 -16 3 -54 21 -85 40 -31 18 -56 30
-56 25 0 -5 21 -93 46 -195 25 -103 44 -189 41 -191 -7 -7 -179 24 -188 33 -7
8 -52 191 -244 983 -47 195 -88 363 -91 372 -5 16 -13 14 -74 -17 l-68 -34 13
-53 c8 -29 57 -233 111 -453 53 -220 116 -479 139 -575 24 -96 42 -176 41
-178 -5 -5 -172 58 -191 72 -14 10 -127 449 -270 1054 l-6 23 -27 -20 c-15
-10 -44 -34 -65 -53 l-38 -33 106 -434 c58 -238 104 -435 103 -437 -6 -6 -165
95 -195 124 -25 24 -36 58 -97 310 l-69 283 -28 -33 c-16 -18 -31 -40 -34 -49
-3 -9 13 -97 35 -195 22 -98 39 -182 37 -187 -1 -5 -50 40 -107 100 -113 118
-225 265 -217 286 12 32 138 189 215 269 168 175 348 306 567 413 202 99 368
149 676 202 l46 8 -42 175 c-24 96 -42 177 -40 178 2 2 43 14 92 26 59 15 89
19 92 12 3 -6 25 -94 51 -196z"/>
<path d="M2265 3197 c-38 -5 -72 -10 -74 -12 -3 -4 38 -185 44 -192 5 -7 150
36 150 43 0 18 -38 159 -44 165 -3 3 -37 1 -76 -4z"/>
<path d="M2567 3118 c12 -50 26 -95 30 -98 5 -4 30 -15 56 -24 156 -58 276
-179 337 -341 28 -74 37 -216 20 -298 -16 -77 -79 -200 -135 -264 l-46 -52 22
-96 c13 -52 27 -95 32 -95 5 0 50 42 101 93 78 78 100 107 139 187 65 131 81
200 81 340 0 134 -16 207 -73 325 -94 198 -272 344 -487 400 -32 8 -68 15 -79
15 l-22 0 24 -92z"/>
<path d="M1935 3126 c-58 -18 -69 -25 -67 -42 2 -10 22 -97 46 -193 l42 -174
32 49 c17 27 43 64 58 81 l26 33 -33 134 -34 134 -70 -22z"/>
<path d="M3225 3026 c211 -296 238 -675 70 -993 l-43 -81 47 22 c180 86 302
166 452 298 75 66 204 213 204 233 0 43 -239 275 -393 382 -71 50 -257 150
-345 187 l-37 15 45 -63z"/>
</g>
</svg>
